<svg width="16" height="16" viewBox="0 0 16 16" fill="none" xmlns="http://www.w3.org/2000/svg">
<path d="M4.39844 2.50039C4.39844 2.34126 4.46165 2.18865 4.57417 2.07613C4.6867 1.9636 4.83931 1.90039 4.99844 1.90039H10.9984C11.0772 1.90039 11.1553 1.91591 11.228 1.94606C11.3008 1.97622 11.367 2.02041 11.4227 2.07613C11.4784 2.13184 11.5226 2.19799 11.5528 2.27078C11.5829 2.34358 11.5984 2.4216 11.5984 2.50039C11.5984 2.57918 11.5829 2.65721 11.5528 2.73C11.5226 2.8028 11.4784 2.86894 11.4227 2.92465C11.367 2.98037 11.3008 3.02457 11.228 3.05472C11.1553 3.08487 11.0772 3.10039 10.9984 3.10039H4.99844C4.83931 3.10039 4.6867 3.03718 4.57417 2.92465C4.46165 2.81213 4.39844 2.65952 4.39844 2.50039ZM2.89844 4.50039C2.89844 4.34126 2.96165 4.18865 3.07417 4.07613C3.1867 3.9636 3.33931 3.90039 3.49844 3.90039H12.4984C12.6576 3.90039 12.8102 3.9636 12.9227 4.07613C13.0352 4.18865 13.0984 4.34126 13.0984 4.50039C13.0984 4.65952 13.0352 4.81213 12.9227 4.92465C12.8102 5.03718 12.6576 5.10039 12.4984 5.10039H3.49844C3.33931 5.10039 3.1867 5.03718 3.07417 4.92465C2.96165 4.81213 2.89844 4.65952 2.89844 4.50039Z" fill="currentColor"/>
<path fill-rule="evenodd" clip-rule="evenodd" d="M2 6.5C2 6.36739 2.05268 6.24021 2.14645 6.14645C2.24021 6.05268 2.36739 6 2.5 6H13.5C13.6326 6 13.7598 6.05268 13.8536 6.14645C13.9473 6.24021 14 6.36739 14 6.5V12C14 12.5304 13.7893 13.0391 13.4142 13.4142C13.0391 13.7893 12.5304 14 12 14H4C3.46957 14 2.96086 13.7893 2.58579 13.4142C2.21071 13.0391 2 12.5304 2 12V6.5ZM6.5 8.324C6.49976 8.28974 6.50833 8.25599 6.52488 8.22599C6.54143 8.19599 6.56541 8.17074 6.59452 8.15268C6.62363 8.13461 6.6569 8.12432 6.69113 8.1228C6.72536 8.12128 6.7594 8.12858 6.79 8.144L10.142 9.821C10.1753 9.83759 10.2033 9.86313 10.2228 9.89474C10.2424 9.92636 10.2528 9.96281 10.2528 10C10.2528 10.0372 10.2424 10.0736 10.2228 10.1053C10.2033 10.1369 10.1753 10.1624 10.142 10.179L6.79 11.855C6.75959 11.8701 6.72584 11.8772 6.69192 11.8757C6.65799 11.8741 6.62502 11.864 6.59611 11.8462C6.5672 11.8284 6.5433 11.8035 6.52666 11.7739C6.51002 11.7443 6.50119 11.711 6.501 11.677L6.5 8.324Z" fill="currentColor"/>
</svg>
