<svg width="312" height="333" viewBox="0 0 312 333" fill="none" xmlns="http://www.w3.org/2000/svg">
<path d="M78.4998 31.5C111.8 12.3 128 2.9 146.4 0.8C152.8 -0.1 159.2 -0.1 165.6 0.8C183.5 2.9 200.2 12.3 233.5 31.5C266.8 50.7 283 60.1 294.1 75.1C297.9 80.2 301.4 86.2 303.9 92.2C311.2 108.9 311.2 128.1 311.2 166.5C311.2 204.9 311.2 224.1 303.9 240.8C301.3 246.8 297.9 252.3 294.1 257.9C283.4 272.4 266.8 282.2 233.5 301.5C200.2 320.7 184 330.1 165.6 332.2C159.2 333.1 152.8 333.1 146.4 332.2C128.5 330.1 111.8 320.7 78.4998 301.5C45.1998 282.3 28.9998 272.9 17.8998 257.9C14.0998 252.8 10.5998 246.8 8.0998 240.8C0.7998 224.1 0.799805 204.9 0.799805 166.5C0.799805 128.1 0.7998 108.9 8.0998 92.2C10.6998 86.2 14.0998 80.7 17.8998 75.1C28.9998 60.5 45.5998 50.7 78.4998 31.5Z" fill="url(#paint0_radial_1137_6322)"/>
<path d="M250.2 159.8C252.9 157.2 253.1 152.9 250.5 150.1C247.9 147.4 243.6 147.2 240.8 149.8L250.2 159.8ZM90 165.8C92.7 163.2 92.9 158.9 90.3 156.1C87.7 153.4 83.4 153.2 80.6 155.8L90 165.8ZM192.5 117.6C195.2 115 195.4 110.7 192.8 107.9C190.2 105.2 185.9 105 183.1 107.6L192.5 117.6ZM122.3 116.6C119.6 119.2 119.4 123.5 122 126.3C124.6 129 128.9 129.2 131.7 126.6L122.3 116.6ZM182.9 174.9C185.6 172.3 185.8 168 183.2 165.2C180.6 162.5 176.3 162.3 173.5 164.9L182.9 174.9ZM204.6 135.7C201.9 138.3 201.7 142.6 204.3 145.4C206.9 148.1 211.2 148.3 214 145.7L204.6 135.7ZM240.8 149.9L157.5 228.4L166.9 238.3L250.2 159.8L240.8 149.9ZM157.6 228.4C148.7 236.8 136.6 241.6 123.8 241.6V255.3C139.9 255.3 155.4 249.3 166.9 238.4L157.6 228.4ZM123.8 241.6C111.1 241.6 98.9 236.8 90 228.4L80.6 238.3C92.1 249.2 107.6 255.2 123.7 255.2L123.8 241.6ZM90 228.4C81.1 220 76.2 208.8 76.2 197.1H62.5C62.5 212.6 69.1 227.5 80.6 238.3L90 228.4ZM76.3 197.1C76.3 185.4 81.2 174.2 90.1 165.8L80.7 155.9C69.2 166.8 62.6 181.6 62.6 197.1H76.3ZM173.3 87.3004C178.8 82.1004 186.3 79.1004 194.3 79.1004V65.4004C183 65.4004 172.1 69.6004 164 77.3004L173.3 87.3004ZM194.3 79.1004C202.2 79.1004 209.8 82.1004 215.3 87.3004L224.7 77.4004C216.6 69.8004 205.7 65.5004 194.4 65.5004V79.1004H194.3ZM215.2 87.3004C220.7 92.5004 223.7 99.4004 223.7 106.5H237.4C237.4 95.5004 232.8 85.0004 224.6 77.4004L215.2 87.3004ZM223.7 106.5C223.7 113.6 220.7 120.5 215.2 125.7L224.6 135.6C232.7 127.9 237.4 117.5 237.4 106.5H223.7ZM131.9 204.2C129.8 206.2 126.9 207.3 123.8 207.3V221C130.3 221 136.6 218.6 141.3 214.1L131.9 204.2ZM123.7 207.4C120.6 207.4 117.7 206.2 115.6 204.3L106.2 214.2C110.9 218.6 117.2 221.1 123.7 221.1V207.4ZM115.6 204.2C113.5 202.2 112.4 199.7 112.4 197.1H98.7C98.7 203.6 101.4 209.7 106.2 214.2L115.6 204.2ZM112.4 197.1C112.4 194.5 113.5 191.9 115.6 190L106.2 180.1C101.5 184.6 98.7 190.7 98.7 197.2H112.4V197.1ZM115.6 190L192.5 117.5L183.1 107.6L106.2 180.1L115.6 190ZM131.7 126.6L173.3 87.3004L163.9 77.4004L122.3 116.7L131.7 126.6ZM173.5 165L131.8 204.3L141.2 214.2L182.9 174.9L173.5 165ZM215.2 125.7L204.6 135.7L214 145.6L224.6 135.6L215.2 125.7Z" fill="white"/>
<defs>
<radialGradient id="paint0_radial_1137_6322" cx="0" cy="0" r="1" gradientUnits="userSpaceOnUse" gradientTransform="translate(239.122 38.5408) rotate(123.652) scale(311.205 285.66)">
<stop stop-color="#7E4162"/>
<stop offset="0.8433" stop-color="#592F44"/>
<stop offset="1" stop-color="#7E4162"/>
</radialGradient>
</defs>
</svg>
