<svg width="134" height="143" viewBox="0 0 134 143" fill="none" xmlns="http://www.w3.org/2000/svg">
<path d="M33.39 13.5225C47.69 5.2425 54.84 1.1125 62.59 0.2325C65.37 -0.0775 68.18 -0.0775 70.97 0.2325C78.72 1.1125 85.87 5.2425 100.17 13.5225C114.47 21.8025 121.61 25.9325 126.25 32.2325C127.91 34.4925 129.32 36.9325 130.44 39.5025C133.56 46.6725 133.56 54.9425 133.56 71.5025C133.56 88.0525 133.56 96.3325 130.44 103.503C129.32 106.073 127.92 108.512 126.25 110.772C121.62 117.062 114.47 121.202 100.17 129.482C85.87 137.762 78.72 141.892 70.97 142.772C68.19 143.082 65.38 143.082 62.59 142.772C54.84 141.892 47.69 137.762 33.39 129.482C19.09 121.202 11.94 117.072 7.31 110.772C5.65 108.512 4.24 106.073 3.12 103.503C9.53674e-07 96.3325 0 88.0625 0 71.5025C0 54.9525 9.53674e-07 46.6725 3.12 39.5025C4.24 36.9325 5.65 34.4925 7.31 32.2325C11.94 25.9425 19.09 21.8025 33.39 13.5225Z" fill="url(#paint0_radial_1247_6334)"/>
<path fill-rule="evenodd" clip-rule="evenodd" d="M75.3902 27.7619C77.3802 27.4719 78.7602 25.6319 78.4702 23.6419C78.1802 21.6519 76.3402 20.2719 74.3502 20.5619L74.8702 24.1619C74.5236 21.7619 74.3502 20.5619 74.3502 20.5619H74.3302C74.3102 20.5619 74.2902 20.5619 74.2602 20.5719C74.2002 20.5719 74.1102 20.5919 74.0002 20.6119C73.7802 20.6519 73.4702 20.7019 73.0802 20.7719C72.3102 20.9119 71.2402 21.1219 70.0302 21.4119C67.6802 21.9719 64.5002 22.8819 61.9602 24.2719C60.7002 24.9619 59.3102 25.9119 58.3002 27.2519C57.2002 28.7119 56.5602 30.6719 57.1402 32.8619C57.4202 33.9319 57.9502 34.8919 58.6402 35.7519C51.5702 37.2319 44.9302 40.6919 40.5602 46.4119C34.9302 53.7919 31.7002 63.1919 29.8602 70.5219C28.9302 74.2219 28.3402 77.4819 27.9902 79.8219C27.8102 80.9919 27.6902 81.9419 27.6102 82.5919C27.5702 82.9219 27.5402 83.1819 27.5202 83.3619C27.5202 83.4519 27.5002 83.5219 27.5002 83.5719C27.5002 83.5919 27.5002 83.6119 27.5002 83.6319V83.6519C27.5002 83.6519 28.7102 83.7619 31.1302 83.9819L27.5002 83.6519V83.8119L27.4902 83.9719H31.1302C28.7036 83.9719 27.4902 83.9719 27.4902 83.9719V84.0219C27.4902 84.0219 27.4902 84.1019 27.4902 84.1719C27.4902 84.3019 27.4902 84.4919 27.4902 84.7319C27.4902 85.2119 27.4902 85.8919 27.5102 86.7219C27.5302 88.3719 27.5702 90.5919 27.6602 92.8719C27.7502 95.1419 27.9002 97.5319 28.1302 99.5019C28.2502 100.482 28.3902 101.442 28.5902 102.262C28.6902 102.672 28.8202 103.122 28.9902 103.562C29.1402 103.942 29.4402 104.612 30.0202 105.212C30.4702 105.682 30.9502 105.932 31.1802 106.042C31.4502 106.172 31.7002 106.262 31.8802 106.312C32.2502 106.422 32.6202 106.502 32.9402 106.552C33.5902 106.662 34.4002 106.752 35.2802 106.822C37.0602 106.972 39.4502 107.082 42.2102 107.162C47.7402 107.332 54.9402 107.402 62.0502 107.432C66.8002 107.442 71.5302 107.432 75.7302 107.422L71.2902 113.852H64.5502C62.5402 113.852 60.9102 115.482 60.9102 117.492C60.9102 119.502 62.5402 121.132 64.5502 121.132H75.1202L84.6202 107.362C85.9102 107.352 87.0302 107.342 87.9202 107.332C88.6902 107.332 89.2902 107.322 89.7102 107.312C89.8202 107.312 89.9202 107.312 90.0002 107.312H90.3402C90.3402 107.312 90.3402 107.292 90.3402 107.252V107.312C90.5902 107.312 90.8402 107.282 91.0702 107.232H91.1602C93.3402 107.162 95.6302 107.052 97.5502 106.902C98.5002 106.822 99.4102 106.732 100.19 106.622C100.84 106.522 101.79 106.362 102.58 106.012C103.64 105.542 104.25 104.752 104.57 104.242C104.91 103.702 105.12 103.152 105.27 102.692C105.56 101.782 105.73 100.742 105.85 99.7519C106.08 97.7319 106.15 95.2619 106.14 92.9419C106.14 90.6019 106.05 88.3019 105.98 86.5919C105.94 85.7419 105.9 85.0219 105.87 84.5319C105.86 84.2819 105.84 84.0819 105.84 83.9519V83.9219C105.84 83.9219 105.84 83.8819 105.84 83.8619C105.84 77.2419 105.29 71.3519 103.41 65.3419C101.51 59.2919 98.3102 53.3219 93.2502 46.4519C88.0402 39.3919 79.1202 35.7219 70.1902 35.0219C67.8402 33.8919 66.2902 32.9119 65.3302 32.1219C64.9102 31.7819 64.6502 31.5119 64.4802 31.3219C64.6902 31.1519 65.0202 30.9219 65.5002 30.6619C67.1702 29.7519 69.5802 29.0119 71.7702 28.4919C72.8302 28.2419 73.7602 28.0519 74.4302 27.9319C74.7602 27.8719 75.0302 27.8319 75.2102 27.8019C75.3002 27.7919 75.3702 27.7819 75.4102 27.7719H75.4302H75.4502L75.3902 27.7619ZM67.0402 42.1819C58.5902 42.1419 50.6102 45.2219 46.3302 50.8319C41.5802 57.0519 38.6502 65.3319 36.9102 72.2919C36.1202 75.4319 35.6002 78.2419 35.2602 80.3519H41.3602C42.8602 76.7719 46.3902 74.2619 50.5102 74.2619C54.6302 74.2619 58.2302 76.8219 59.7002 80.4519C59.9702 80.3919 60.2602 80.3519 60.5502 80.3519H71.4902C72.9902 76.7719 76.5202 74.2619 80.6402 74.2619C84.7602 74.2619 88.2902 76.7719 89.7902 80.3519H98.4202C98.2402 75.6719 97.6602 71.5919 96.3902 67.5319C94.8002 62.4519 92.0502 57.2019 87.3202 50.7819C83.3202 45.3619 75.5102 42.2119 67.0402 42.1819ZM34.7702 87.6319H41.2102C42.6102 91.4119 46.2502 94.1019 50.5102 94.1019C54.7702 94.1019 58.4502 91.3819 59.8402 87.5619C60.0702 87.6119 60.3102 87.6319 60.5502 87.6319H71.3402C72.7402 91.4119 76.3802 94.1019 80.6402 94.1019C84.9002 94.1019 88.5402 91.4119 89.9402 87.6319H98.6702C98.7302 89.1719 98.7902 91.0719 98.7902 92.9719C98.7902 95.2019 98.7302 97.3419 98.5502 98.9319C98.5302 99.1419 98.5002 99.3419 98.4702 99.5119C98.0302 99.5619 97.5002 99.6119 96.9102 99.6619C95.1602 99.8019 93.0002 99.9019 90.8702 99.9719C88.7402 100.042 86.6802 100.082 85.1502 100.102C84.7502 100.102 84.4002 100.102 84.0802 100.112C83.6202 100.112 83.1302 100.112 82.6302 100.122H80.7302V100.132C75.5402 100.162 68.8102 100.192 62.0302 100.172C54.9302 100.152 47.8202 100.082 42.3902 99.9119C39.6702 99.8319 37.4302 99.7219 35.8402 99.5919C35.7002 99.5819 35.5702 99.5719 35.4402 99.5619C35.4002 99.2919 35.3602 99.0019 35.3202 98.6719C35.1202 96.9819 34.9802 94.8019 34.8902 92.5919C34.8202 90.8319 34.7802 89.0919 34.7502 87.6419L34.7702 87.6319ZM53.2702 84.1719C53.2702 85.7019 52.0302 86.9319 50.5102 86.9319C48.9902 86.9319 47.7502 85.6919 47.7502 84.1719C47.7502 82.6519 48.9902 81.4119 50.5102 81.4119C52.0302 81.4119 53.2702 82.6519 53.2702 84.1719ZM83.4002 84.1719C83.4002 85.7019 82.1602 86.9319 80.6402 86.9319C79.1202 86.9319 77.8802 85.6919 77.8802 84.1719C77.8802 82.6519 79.1202 81.4119 80.6402 81.4119C82.1602 81.4119 83.4002 82.6519 83.4002 84.1719Z" fill="white"/>
<defs>
<radialGradient id="paint0_radial_1247_6334" cx="0" cy="0" r="1" gradientUnits="userSpaceOnUse" gradientTransform="translate(87.6159 -32.9506) rotate(123.65) scale(133.847 122.861)">
<stop stop-color="#31B37F"/>
<stop offset="0.84" stop-color="#226D4F"/>
<stop offset="1" stop-color="#118154"/>
</radialGradient>
</defs>
</svg>
