<svg width="141" height="52" viewBox="0 0 141 52" fill="none" xmlns="http://www.w3.org/2000/svg">
    <g id="google-play-badge">
        <rect id="Rectangle" width="141" height="52" rx="5" fill="black"/>
        <g id="Group">
            <path id="Shape" fill-rule="evenodd" clip-rule="evenodd"
                  d="M49.973 28.1912V29.9912H54.293C54.2253 30.839 53.8729 31.639 53.293 32.2612C52.4167 33.1541 51.203 33.6337 49.953 33.5812C47.302 33.5812 45.153 31.4322 45.153 28.7812C45.153 26.1303 47.302 23.9812 49.953 23.9812C51.1735 23.9631 52.3519 24.4266 53.233 25.2712L54.503 24.0012C53.299 22.8104 51.6662 22.1544 49.973 22.1812C47.552 22.087 45.2734 23.3249 44.0349 25.4073C42.7963 27.4897 42.7963 30.0828 44.0349 32.1652C45.2734 34.2476 47.552 35.4854 49.973 35.3912C51.7032 35.4603 53.3806 34.7872 54.583 33.5412C55.6331 32.3876 56.1927 30.8704 56.143 29.3112C56.1466 28.936 56.1165 28.5611 56.053 28.1912H49.973ZM61.053 26.8812C58.7003 26.8868 56.7975 28.7985 56.803 31.1512C56.8086 33.5039 58.7203 35.4067 61.073 35.4012C63.4257 35.3957 65.3285 33.484 65.323 31.1312C65.3395 29.9956 64.8942 28.9019 64.0893 28.1007C63.2843 27.2995 62.1885 26.8594 61.053 26.8812ZM66.123 31.1512C66.1175 28.7985 68.0203 26.8868 70.373 26.8812C71.5085 26.8594 72.6043 27.2995 73.4093 28.1007C74.2142 28.9019 74.6595 29.9956 74.643 31.1312C74.6485 33.484 72.7457 35.3957 70.393 35.4012C68.0403 35.4067 66.1286 33.5039 66.123 31.1512ZM67.865 32.2497C68.3217 33.2055 69.3162 33.7851 70.373 33.7112C71.0363 33.6958 71.6653 33.4132 72.1171 32.9274C72.569 32.4416 72.8056 31.7939 72.773 31.1312C72.7704 30.0719 72.1205 29.1218 71.1342 28.7353C70.1478 28.3489 69.0255 28.6046 68.304 29.3803C67.5824 30.1559 67.4084 31.2938 67.865 32.2497ZM58.545 32.2497C59.0017 33.2055 59.9962 33.7851 61.053 33.7112C61.7163 33.6958 62.3453 33.4132 62.7971 32.9274C63.249 32.4416 63.4855 31.7939 63.453 31.1312C63.4504 30.0719 62.8005 29.1218 61.8142 28.7353C60.8278 28.3489 59.7055 28.6046 58.984 29.3803C58.2624 30.1559 58.0884 31.2938 58.545 32.2497ZM91.643 26.8812C93.3009 26.9423 94.7491 28.0204 95.283 29.5912L95.493 30.0312L89.803 32.3812C90.1574 33.1954 90.9758 33.7079 91.863 33.6712C92.7179 33.6795 93.5132 33.2343 93.953 32.5012L95.403 33.5012C94.3701 35.0659 92.4304 35.764 90.6373 35.2164C88.8441 34.6687 87.6254 33.006 87.643 31.1312C87.5739 30.0278 87.9646 28.9449 88.7224 28.1398C89.4802 27.3346 90.5374 26.8791 91.643 26.8812ZM89.483 31.0112C89.4421 30.3837 89.6554 29.7662 90.0749 29.2978C90.4944 28.8293 91.0848 28.5495 91.713 28.5212C92.3718 28.481 92.9905 28.8396 93.283 29.4312L89.483 31.0112ZM86.733 35.1312H84.863V22.6312H86.733V35.1312ZM81.803 27.8312H81.733C81.1677 27.1874 80.3497 26.8223 79.493 26.8312C77.2232 26.9413 75.4393 28.8137 75.4393 31.0862C75.4393 33.3587 77.2232 35.2312 79.493 35.3412C80.3514 35.3584 81.1727 34.9918 81.733 34.3412H81.803V34.9512C81.803 36.5812 80.933 37.4512 79.533 37.4512C78.5765 37.4302 77.7274 36.8338 77.383 35.9412L75.763 36.6112C76.3762 38.1512 77.8756 39.1535 79.533 39.1312C81.723 39.1312 83.533 37.8412 83.533 34.7012V27.1312H81.803V27.8312ZM77.2336 31.1362C77.2336 32.4988 78.2931 33.6264 79.653 33.7112C80.3029 33.6862 80.9143 33.3964 81.345 32.909C81.7757 32.4217 81.9881 31.7793 81.933 31.1312C81.9824 30.4855 81.7676 29.8474 81.3378 29.3629C80.908 28.8784 80.3 28.5891 79.653 28.5612C78.2931 28.646 77.2336 29.7737 77.2336 31.1362ZM104.043 22.6312H99.563V35.1312H101.433V30.3912H104.043C105.496 30.4956 106.885 29.7797 107.643 28.5362C108.401 27.2927 108.401 25.7298 107.643 24.4863C106.885 23.2427 105.496 22.5269 104.043 22.6312ZM101.433 28.6312H104.043L104.083 28.6512C104.848 28.6512 105.554 28.2433 105.936 27.5812C106.319 26.9191 106.319 26.1033 105.936 25.4412C105.554 24.7791 104.848 24.3712 104.083 24.3712H101.433V28.6312ZM115.583 26.8412C114.191 26.7554 112.882 27.5064 112.253 28.7512L113.903 29.4412C114.244 28.8272 114.913 28.4707 115.613 28.5312C116.093 28.4752 116.574 28.6142 116.951 28.9169C117.327 29.2197 117.565 29.6608 117.613 30.1412V30.2612C117.012 29.9451 116.342 29.7804 115.663 29.7812C113.883 29.7812 112.063 30.7812 112.063 32.6012C112.099 33.3828 112.45 34.1166 113.036 34.6348C113.622 35.1531 114.393 35.4116 115.173 35.3512C116.128 35.4041 117.038 34.9378 117.553 34.1312H117.613V35.1312H119.413V30.3212C119.413 28.1312 117.753 26.8612 115.623 26.8612L115.583 26.8412ZM113.893 32.6312C113.893 33.3812 114.743 33.6912 115.353 33.6912L115.393 33.7112C116.523 33.6887 117.463 32.8343 117.593 31.7112C117.074 31.4216 116.487 31.2766 115.893 31.2912C114.953 31.2912 113.893 31.6312 113.893 32.6312ZM125.973 27.1312L123.833 32.5512H123.773L121.553 27.1312H119.553L122.883 34.7112L120.983 38.9212H122.933L128.053 27.1312H125.973ZM111.033 35.1312H109.173V22.6312H111.033V35.1312Z"
                  fill="white"/>
            <path id="Path"
                  d="M12.673 12.6713C12.3435 13.0609 12.1754 13.5617 12.203 14.0713V36.1913C12.169 36.7016 12.3379 37.2048 12.673 37.5913L12.743 37.6713L25.133 25.2813V24.9813L12.743 12.6013L12.673 12.6713Z"
                  fill="url(#paint0_linear)"/>
            <path id="Path_2"
                  d="M29.2328 29.4113L25.1328 25.2813V24.9813L29.2328 20.8513L29.3228 20.9113L34.2328 23.6913C35.6328 24.4813 35.6328 25.7813 34.2328 26.5813L29.3428 29.3613L29.2328 29.4113Z"
                  fill="url(#paint1_linear)"/>
            <path id="Path_3"
                  d="M29.3529 29.3512L25.1329 25.1312L12.6729 37.5912C13.2559 38.1102 14.1261 38.1396 14.7429 37.6612L29.3529 29.3512Z"
                  fill="url(#paint2_linear)"/>
            <path id="Path_4"
                  d="M29.3529 20.9113L14.7429 12.6113C14.1298 12.126 13.2567 12.1513 12.6729 12.6713L25.1329 25.1313L29.3529 20.9113Z"
                  fill="url(#paint3_linear)"/>
            <path id="Path_5" opacity="0.2"
                  d="M29.2329 29.2612L14.7429 37.5112C14.151 37.9579 13.3347 37.9579 12.7429 37.5112L12.6729 37.5812L12.7429 37.6612C13.3347 38.1079 14.151 38.1079 14.7429 37.6612L29.3529 29.3512L29.2329 29.2612Z"
                  fill="black"/>
            <path id="Path_6" opacity="0.12"
                  d="M12.6729 37.4513C12.3517 37.0546 12.1943 36.5502 12.2329 36.0413V36.1913C12.1988 36.7016 12.3678 37.2048 12.7029 37.5913L12.7729 37.5213L12.6729 37.4513Z"
                  fill="black"/>
            <path id="Path_7" opacity="0.12"
                  d="M34.2329 26.4312L29.2329 29.2612L29.3229 29.3512L34.2329 26.5712C34.8233 26.3216 35.23 25.7691 35.2929 25.1312C35.1661 25.7083 34.7727 26.1909 34.2329 26.4312Z"
                  fill="black"/>
            <path id="Path_8" opacity="0.25"
                  d="M14.7426 12.7513L34.2326 23.8313C34.7724 24.0716 35.1658 24.5542 35.2926 25.1313C35.2297 24.4934 34.823 23.9409 34.2326 23.6913L14.7426 12.6113C13.3526 11.8113 12.2026 12.4713 12.2026 14.0713V14.2213C12.2326 12.6213 13.3526 11.9613 14.7426 12.7513Z"
                  fill="white"/>
            <g id="Shape_2">
                <path fill-rule="evenodd" clip-rule="evenodd"
                      d="M43.6128 19.4012H44.3428V18.1312H48.8928V19.3912H49.6328V17.3912H48.9628V12.1312H44.9628V15.1312C45.0643 15.9583 44.7974 16.7883 44.2328 17.4012H43.6128V19.4012ZM45.1628 17.4212C45.5788 16.7326 45.7774 15.9345 45.7328 15.1312V12.8712H48.1628V17.4212H45.1628Z"
                      fill="white"/>
                <path d="M44.3428 19.4012V19.5012H44.4428V19.4012H44.3428ZM43.6128 19.4012H43.5128V19.5012H43.6128V19.4012ZM44.3428 18.1312V18.0312H44.2428V18.1312H44.3428ZM48.8928 18.1312H48.9928V18.0312H48.8928V18.1312ZM48.8928 19.3912H48.7928V19.4912H48.8928V19.3912ZM49.6328 19.3912V19.4912H49.7328V19.3912H49.6328ZM49.6328 17.3912H49.7328V17.2912H49.6328V17.3912ZM48.9628 17.3912H48.8628V17.4912H48.9628V17.3912ZM48.9628 12.1312H49.0628V12.0312H48.9628V12.1312ZM44.9628 12.1312V12.0312H44.8628V12.1312H44.9628ZM44.9628 15.1312H44.862L44.8635 15.1434L44.9628 15.1312ZM44.2328 17.4012V17.5012H44.2766L44.3063 17.469L44.2328 17.4012ZM43.6128 17.4012V17.3012H43.5128V17.4012H43.6128ZM45.7328 15.1312H45.6326L45.6329 15.1368L45.7328 15.1312ZM45.1628 17.4212L45.0772 17.3695L44.9856 17.5212H45.1628V17.4212ZM45.7328 12.8712V12.7712H45.6328V12.8712H45.7328ZM48.1628 12.8712H48.2628V12.7712H48.1628V12.8712ZM48.1628 17.4212V17.5212H48.2628V17.4212H48.1628ZM44.3428 19.3012H43.6128V19.5012H44.3428V19.3012ZM44.2428 18.1312V19.4012H44.4428V18.1312H44.2428ZM48.8928 18.0312H44.3428V18.2312H48.8928V18.0312ZM48.9928 19.3912V18.1312H48.7928V19.3912H48.9928ZM49.6328 19.2912H48.8928V19.4912H49.6328V19.2912ZM49.5328 17.3912V19.3912H49.7328V17.3912H49.5328ZM48.9628 17.4912H49.6328V17.2912H48.9628V17.4912ZM48.8628 12.1312V17.3912H49.0628V12.1312H48.8628ZM44.9628 12.2312H48.9628V12.0312H44.9628V12.2312ZM45.0628 15.1312V12.1312H44.8628V15.1312H45.0628ZM44.3063 17.469C44.8908 16.8345 45.1671 15.9753 45.062 15.119L44.8635 15.1434C44.9615 15.9414 44.7039 16.7421 44.1592 17.3335L44.3063 17.469ZM43.6128 17.5012H44.2328V17.3012H43.6128V17.5012ZM43.7128 19.4012V17.4012H43.5128V19.4012H43.7128ZM45.6329 15.1368C45.6765 15.92 45.4828 16.6981 45.0772 17.3695L45.2484 17.4729C45.6748 16.7671 45.8784 15.949 45.8326 15.1257L45.6329 15.1368ZM45.6328 12.8712V15.1312H45.8328V12.8712H45.6328ZM48.1628 12.7712H45.7328V12.9712H48.1628V12.7712ZM48.2628 17.4212V12.8712H48.0628V17.4212H48.2628ZM45.1628 17.5212H48.1628V17.3212H45.1628V17.5212Z"
                      fill="white"/>
            </g>
            <g id="Shape_3">
                <path fill-rule="evenodd" clip-rule="evenodd"
                      d="M53.4478 18.2622C54.2714 18.2622 55.0612 17.9344 55.6428 17.3512C56.2343 16.7666 56.5567 15.9626 56.5328 15.1312C56.5473 14.3016 56.2264 13.5011 55.6428 12.9112C55.0612 12.3281 54.2714 12.0003 53.4478 12.0003C52.6241 12.0003 51.8344 12.3281 51.2528 12.9112C50.0642 14.1526 50.0642 16.1099 51.2528 17.3512C51.8344 17.9344 52.6241 18.2622 53.4478 18.2622ZM53.4428 17.5312C52.8288 17.5398 52.2387 17.2936 51.8128 16.8512C50.9322 15.8736 50.9322 14.3889 51.8128 13.4112C52.2387 12.9689 52.8288 12.7227 53.4428 12.7312C54.0575 12.7191 54.649 12.9658 55.0728 13.4112C55.9674 14.3834 55.9674 15.8791 55.0728 16.8512C54.649 17.2967 54.0575 17.5434 53.4428 17.5312Z"
                      fill="white"/>
                <path d="M55.6428 17.3512L55.5725 17.2801L55.572 17.2806L55.6428 17.3512ZM56.5328 15.1312L56.4327 15.1295L56.4328 15.1341L56.5328 15.1312ZM55.6428 12.9112L55.7139 12.8409L55.7136 12.8406L55.6428 12.9112ZM51.2528 12.9112L51.182 12.8406L51.1805 12.8421L51.2528 12.9112ZM51.2528 17.3512L51.1805 17.4204L51.182 17.4219L51.2528 17.3512ZM51.8128 16.8512L51.7384 16.9182L51.7407 16.9206L51.8128 16.8512ZM53.4428 17.5312L53.4448 17.4312L53.4414 17.4313L53.4428 17.5312ZM51.8128 13.4112L51.7407 13.3418L51.7385 13.3443L51.8128 13.4112ZM53.4428 12.7312L53.4414 12.8313L53.4448 12.8312L53.4428 12.7312ZM55.0728 13.4112L55.1464 13.3435L55.1452 13.3423L55.0728 13.4112ZM55.0728 16.8512L55.1452 16.9202L55.1464 16.919L55.0728 16.8512ZM55.572 17.2806C55.0091 17.845 54.2448 18.1622 53.4478 18.1622V18.3622C54.298 18.3622 55.1132 18.0239 55.7136 17.4219L55.572 17.2806ZM56.4328 15.1341C56.4559 15.9378 56.1443 16.715 55.5725 17.2801L55.7131 17.4224C56.3244 16.8183 56.6574 15.9875 56.6327 15.1284L56.4328 15.1341ZM55.5717 12.9816C56.1363 13.5523 56.4468 14.3268 56.4328 15.1295L56.6328 15.133C56.6477 14.2764 56.3164 13.45 55.7139 12.8409L55.5717 12.9816ZM53.4478 12.1003C54.2448 12.1003 55.0091 12.4175 55.572 12.9819L55.7136 12.8406C55.1132 12.2386 54.298 11.9003 53.4478 11.9003V12.1003ZM51.3236 12.9819C51.8864 12.4175 52.6507 12.1003 53.4478 12.1003V11.9003C52.5976 11.9003 51.7823 12.2386 51.182 12.8406L51.3236 12.9819ZM51.325 17.2821C50.1734 16.0794 50.1734 14.1831 51.325 12.9804L51.1805 12.8421C49.9549 14.1221 49.9549 16.1404 51.1805 17.4204L51.325 17.2821ZM53.4478 18.1622C52.6507 18.1622 51.8864 17.845 51.3236 17.2806L51.182 17.4219C51.7823 18.0239 52.5976 18.3622 53.4478 18.3622V18.1622ZM51.7407 16.9206C52.1858 17.3829 52.8025 17.6401 53.4442 17.6312L53.4414 17.4313C52.855 17.4394 52.2915 17.2043 51.8848 16.7819L51.7407 16.9206ZM51.7385 13.3443C50.8236 14.36 50.8236 15.9025 51.7385 16.9182L51.8871 16.7843C51.0408 15.8447 51.0408 14.4177 51.8871 13.4782L51.7385 13.3443ZM53.4442 12.6313C52.8025 12.6224 52.1858 12.8796 51.7407 13.3419L51.8848 13.4806C52.2915 13.0582 52.855 12.8231 53.4414 12.8312L53.4442 12.6313ZM55.1452 13.3423C54.7021 12.8766 54.0836 12.6185 53.4408 12.6313L53.4448 12.8312C54.0314 12.8196 54.5959 13.0551 55.0003 13.4802L55.1452 13.3423ZM55.1464 16.919C56.0762 15.9085 56.0762 14.354 55.1464 13.3435L54.9992 13.479C55.8586 14.4128 55.8586 15.8496 54.9992 16.7835L55.1464 16.919ZM53.4408 17.6312C54.0836 17.644 54.7021 17.3859 55.1452 16.9202L55.0003 16.7823C54.5959 17.2074 54.0314 17.4429 53.4448 17.4313L53.4408 17.6312Z"
                      fill="white"/>
            </g>
            <path id="Path_9"
                  d="M60.413 18.2612C59.5955 18.2741 58.8081 17.9526 58.233 17.3712C57.0343 16.1185 57.0343 14.144 58.233 12.8912C58.8177 12.2997 59.6217 11.9773 60.453 12.0012C61.3014 11.9772 62.1133 12.3463 62.653 13.0012L62.123 13.5212C61.7244 13.0087 61.1017 12.7216 60.453 12.7512C59.8309 12.7354 59.2299 12.9779 58.793 13.4212C57.9004 14.4019 57.9004 15.9006 58.793 16.8812C59.2299 17.3246 59.8309 17.5671 60.453 17.5512C61.1486 17.5315 61.7999 17.2058 62.233 16.6612L62.773 17.1912C62.4991 17.5195 62.1582 17.7855 61.773 17.9712C61.3476 18.17 60.8825 18.2692 60.413 18.2612Z"
                  fill="white" stroke="white" stroke-width="0.2"/>
            <path id="Path_10" d="M65.9129 18.1312H65.1429V12.8712H63.4629V12.1312H67.5829V12.8712H65.9129V18.1312Z"
                  fill="white" stroke="white" stroke-width="0.2"/>
            <path id="Path_11"
                  d="M72.883 12.1312L70.613 17.1912C70.5016 17.6018 70.2155 17.9428 69.8304 18.1238C69.4454 18.3047 69.0003 18.3075 68.613 18.1312L68.813 17.4212C68.9354 17.49 69.0727 17.5277 69.213 17.5312C69.361 17.5386 69.5077 17.5002 69.633 17.4212C69.7545 17.3201 69.8476 17.1892 69.903 17.0412L70.123 16.5612L68.123 12.1312H69.033L70.513 15.5712L71.973 12.1312H72.883Z"
                  fill="white" stroke="white" stroke-width="0.2"/>
            <path id="Path_12" d="M73.7529 18.1312V12.1312H78.0929V18.1312H77.3229V12.8712H74.5229V18.1312H73.7529Z"
                  fill="white" stroke="white" stroke-width="0.2"/>
            <path id="Path_13"
                  d="M79.4629 18.1312V12.1312H80.2329V14.7012H83.2329V12.1312H84.0129V18.1312H83.2329V15.4212H80.2329V18.1312H79.4629Z"
                  fill="white" stroke="white" stroke-width="0.2"/>
            <g id="Shape_4">
                <path fill-rule="evenodd" clip-rule="evenodd"
                      d="M88.0929 18.263C88.9182 18.263 89.7096 17.935 90.2929 17.3512H90.2829C91.4614 16.1058 91.4614 14.1567 90.2829 12.9112C89.7013 12.3281 88.9115 12.0003 88.0879 12.0003C87.2643 12.0003 86.4745 12.3281 85.8929 12.9112C84.7043 14.1526 84.7043 16.1099 85.8929 17.3512C86.4762 17.935 87.2676 18.263 88.0929 18.263ZM88.0929 17.5312C87.4782 17.5434 86.8867 17.2967 86.4629 16.8512C85.5683 15.8791 85.5683 14.3834 86.4629 13.4112C86.8867 12.9658 87.4782 12.7191 88.0929 12.7312C88.7069 12.7227 89.297 12.9689 89.7229 13.4112C90.6035 14.3889 90.6035 15.8736 89.7229 16.8512C89.297 17.2936 88.7069 17.5398 88.0929 17.5312Z"
                      fill="white"/>
                <path d="M90.2929 17.3512L90.3636 17.4219L90.5342 17.2512H90.2929V17.3512ZM90.2829 17.3512L90.2103 17.2825L90.0506 17.4512H90.2829V17.3512ZM90.2829 12.9112L90.3556 12.8425L90.3537 12.8406L90.2829 12.9112ZM85.8929 12.9112L85.8221 12.8406L85.8207 12.8421L85.8929 12.9112ZM85.8929 17.3512L85.8207 17.4204L85.8222 17.4219L85.8929 17.3512ZM86.4629 16.8512L86.3893 16.919L86.3905 16.9202L86.4629 16.8512ZM88.0929 17.5312L88.0943 17.4312L88.0909 17.4313L88.0929 17.5312ZM86.4629 13.4112L86.3905 13.3423L86.3893 13.3435L86.4629 13.4112ZM88.0929 12.7312L88.0909 12.8313L88.0943 12.8312L88.0929 12.7312ZM89.7229 13.4112L89.7973 13.3443L89.7949 13.3419L89.7229 13.4112ZM89.7229 16.8512L89.795 16.9206L89.7972 16.9182L89.7229 16.8512ZM90.2222 17.2806C89.6576 17.8456 88.8916 18.163 88.0929 18.163V18.363C88.9447 18.363 89.7616 18.0245 90.3636 17.4219L90.2222 17.2806ZM90.2829 17.4512H90.2929V17.2512H90.2829V17.4512ZM90.2103 12.98C91.3522 14.1868 91.3522 16.0757 90.2103 17.2825L90.3555 17.42C91.5705 16.136 91.5705 14.1265 90.3555 12.8425L90.2103 12.98ZM88.0879 12.1003C88.885 12.1003 89.6493 12.4175 90.2121 12.9819L90.3537 12.8406C89.7534 12.2386 88.9381 11.9003 88.0879 11.9003V12.1003ZM85.9637 12.9819C86.5266 12.4175 87.2909 12.1003 88.0879 12.1003V11.9003C87.2377 11.9003 86.4225 12.2386 85.8221 12.8406L85.9637 12.9819ZM85.9651 17.2821C84.8136 16.0794 84.8136 14.1831 85.9651 12.9804L85.8207 12.8421C84.5951 14.1221 84.5951 16.1404 85.8207 17.4204L85.9651 17.2821ZM88.0929 18.163C87.2942 18.163 86.5282 17.8456 85.9636 17.2806L85.8222 17.4219C86.4242 18.0245 87.2411 18.363 88.0929 18.363V18.163ZM86.3905 16.9202C86.8336 17.3859 87.4521 17.644 88.0949 17.6312L88.0909 17.4313C87.5043 17.4429 86.9398 17.2074 86.5354 16.7823L86.3905 16.9202ZM86.3893 13.3435C85.4595 14.354 85.4595 15.9085 86.3893 16.919L86.5365 16.7835C85.6771 15.8496 85.6771 14.4128 86.5365 13.479L86.3893 13.3435ZM88.0949 12.6313C87.4521 12.6185 86.8336 12.8766 86.3905 13.3423L86.5354 13.4802C86.9398 13.0551 87.5043 12.8196 88.0909 12.8312L88.0949 12.6313ZM89.7949 13.3419C89.3499 12.8796 88.7332 12.6224 88.0915 12.6313L88.0943 12.8312C88.6806 12.8231 89.2442 13.0582 89.6509 13.4806L89.7949 13.3419ZM89.7972 16.9182C90.712 15.9025 90.712 14.36 89.7972 13.3443L89.6486 13.4782C90.4949 14.4177 90.4949 15.8447 89.6486 16.7843L89.7972 16.9182ZM88.0915 17.6312C88.7332 17.6401 89.3499 17.3829 89.7949 16.9206L89.6509 16.7819C89.2442 17.2043 88.6806 17.4394 88.0943 17.4313L88.0915 17.6312Z"
                      fill="white"/>
            </g>
            <g id="Shape_5">
                <path fill-rule="evenodd" clip-rule="evenodd"
                      d="M94.3228 18.1313V12.1313H96.4928C96.9426 12.1267 97.3779 12.2908 97.7128 12.5913C98.051 12.8848 98.2415 13.3134 98.2328 13.7613C98.2352 14.0306 98.1587 14.2948 98.0128 14.5213C97.8651 14.736 97.6609 14.9056 97.4228 15.0113C97.7114 15.11 97.9651 15.2907 98.1528 15.5313C98.3366 15.7763 98.4349 16.0749 98.4328 16.3813C98.4431 16.848 98.2452 17.2951 97.8928 17.6013C97.5457 17.9242 97.0868 18.0999 96.6128 18.0913L94.3228 18.1313ZM95.0928 14.7013H96.4928C96.7581 14.7166 97.016 14.6098 97.1928 14.4113C97.3623 14.2451 97.4594 14.0186 97.4628 13.7813C97.4722 13.5431 97.3899 13.3104 97.2328 13.1313C97.0625 12.9424 96.8167 12.8397 96.5628 12.8513H95.1228L95.0928 14.7013ZM96.6528 17.3913H95.0928V15.4213H96.6128C96.8953 15.4139 97.1678 15.5266 97.3628 15.7313C97.5367 15.9116 97.6367 16.1507 97.6428 16.4013C97.6419 16.6539 97.5454 16.8968 97.3728 17.0813C97.191 17.2868 96.927 17.4005 96.6528 17.3913Z"
                      fill="white"/>
                <path d="M94.3228 12.1313V12.0313H94.2228V12.1313H94.3228ZM94.3228 18.1313H94.2228V18.233L94.3245 18.2312L94.3228 18.1313ZM96.4928 12.1313V12.2313L96.4938 12.2313L96.4928 12.1313ZM97.7128 12.5913L97.646 12.6657L97.6472 12.6668L97.7128 12.5913ZM98.2328 13.7613L98.1327 13.7593L98.1328 13.7622L98.2328 13.7613ZM98.0128 14.5213L98.0952 14.5779L98.0968 14.5754L98.0128 14.5213ZM97.4228 15.0113L97.3822 14.9199L97.149 15.0233L97.3904 15.1059L97.4228 15.0113ZM98.1528 15.5313L98.2328 15.4712L98.2316 15.4698L98.1528 15.5313ZM98.4328 16.3813L98.3327 16.3805L98.3328 16.3835L98.4328 16.3813ZM97.8928 17.6013L97.8271 17.5257L97.8246 17.528L97.8928 17.6013ZM96.6128 18.0913L96.6146 17.9912L96.611 17.9913L96.6128 18.0913ZM96.4928 14.7013L96.4985 14.6013H96.4928V14.7013ZM95.0928 14.7013L94.9928 14.6996L94.9911 14.8013H95.0928V14.7013ZM97.1928 14.4113L97.1226 14.3397L97.1181 14.3448L97.1928 14.4113ZM97.4628 13.7813L97.3628 13.7773L97.3628 13.7798L97.4628 13.7813ZM97.2328 13.1313L97.308 13.0653L97.307 13.0643L97.2328 13.1313ZM96.5628 12.8513V12.9514L96.5673 12.9512L96.5628 12.8513ZM95.1228 12.8513V12.7513H95.0244L95.0228 12.8496L95.1228 12.8513ZM95.0928 17.3913H94.9928V17.4913H95.0928V17.3913ZM96.6528 17.3913L96.6561 17.2913H96.6528V17.3913ZM95.0928 15.4213V15.3213H94.9928V15.4213H95.0928ZM96.6128 15.4213V15.5213L96.6153 15.5212L96.6128 15.4213ZM97.3628 15.7313L97.2903 15.8002L97.2908 15.8007L97.3628 15.7313ZM97.6428 16.4013L97.7428 16.4016L97.7427 16.3988L97.6428 16.4013ZM97.3728 17.0813L97.2997 17.0129L97.2978 17.015L97.3728 17.0813ZM94.2228 12.1313V18.1313H94.4228V12.1313H94.2228ZM96.4928 12.0313H94.3228V12.2313H96.4928V12.0313ZM97.7795 12.5168C97.426 12.1997 96.9666 12.0265 96.4918 12.0313L96.4938 12.2313C96.9186 12.227 97.3297 12.382 97.646 12.6657L97.7795 12.5168ZM98.3327 13.7632C98.3421 13.2857 98.139 12.8287 97.7783 12.5157L97.6472 12.6668C97.9631 12.9409 98.141 13.3411 98.1328 13.7593L98.3327 13.7632ZM98.0968 14.5754C98.2533 14.3326 98.3353 14.0493 98.3327 13.7604L98.1328 13.7622C98.135 14.012 98.0641 14.2571 97.9287 14.4671L98.0968 14.5754ZM97.4633 15.1027C97.7184 14.9895 97.9371 14.8078 98.0952 14.5779L97.9304 14.4646C97.7932 14.6641 97.6035 14.8217 97.3822 14.9199L97.4633 15.1027ZM98.2316 15.4698C98.032 15.2138 97.7622 15.0216 97.4551 14.9166L97.3904 15.1059C97.6607 15.1983 97.8982 15.3675 98.0739 15.5928L98.2316 15.4698ZM98.5328 16.382C98.5351 16.0537 98.4297 15.7338 98.2328 15.4713L98.0728 15.5913C98.2434 15.8188 98.3348 16.0961 98.3328 16.3805L98.5328 16.382ZM97.9583 17.6767C98.3332 17.3511 98.5437 16.8755 98.5327 16.379L98.3328 16.3835C98.3425 16.8205 98.1572 17.2391 97.8272 17.5258L97.9583 17.6767ZM96.6109 18.1912C97.1109 18.2004 97.5948 18.0151 97.9609 17.6745L97.8246 17.528C97.4965 17.8334 97.0627 17.9994 96.6146 17.9913L96.6109 18.1912ZM94.3245 18.2312L96.6145 18.1912L96.611 17.9913L94.321 18.0313L94.3245 18.2312ZM96.4928 14.6013H95.0928V14.8013H96.4928V14.6013ZM97.1181 14.3448C96.9616 14.5205 96.7334 14.615 96.4985 14.6014L96.487 14.8011C96.7829 14.8182 97.0703 14.6991 97.2674 14.4778L97.1181 14.3448ZM97.3628 13.7798C97.3598 13.9908 97.2735 14.1921 97.1228 14.3398L97.2627 14.4827C97.4512 14.298 97.559 14.0464 97.5627 13.7827L97.3628 13.7798ZM97.1576 13.1972C97.2978 13.3571 97.3713 13.5648 97.3628 13.7773L97.5627 13.7852C97.5731 13.5215 97.482 13.2638 97.3079 13.0653L97.1576 13.1972ZM96.5673 12.9512C96.7914 12.941 97.0083 13.0316 97.1585 13.1982L97.307 13.0643C97.1168 12.8533 96.8421 12.7384 96.5582 12.7514L96.5673 12.9512ZM95.1228 12.9513H96.5628V12.7513H95.1228V12.9513ZM95.1927 14.7029L95.2227 12.8529L95.0228 12.8496L94.9928 14.6996L95.1927 14.7029ZM95.0928 17.4913H96.6528V17.2913H95.0928V17.4913ZM94.9928 15.4213V17.3913H95.1928V15.4213H94.9928ZM96.6128 15.3213H95.0928V15.5213H96.6128V15.3213ZM97.4352 15.6623C97.2207 15.4371 96.921 15.3132 96.6102 15.3213L96.6153 15.5212C96.8697 15.5146 97.1149 15.616 97.2903 15.8002L97.4352 15.6623ZM97.7427 16.3988C97.736 16.1232 97.6261 15.8602 97.4347 15.6618L97.2908 15.8007C97.4474 15.963 97.5373 16.1782 97.5428 16.4037L97.7427 16.3988ZM97.4458 17.1496C97.6357 16.9467 97.7418 16.6795 97.7428 16.4016L97.5428 16.4009C97.542 16.6283 97.4552 16.8469 97.2998 17.0129L97.4458 17.1496ZM96.6494 17.4912C96.9534 17.5014 97.2461 17.3754 97.4477 17.1475L97.2978 17.015C97.1358 17.1982 96.9005 17.2995 96.6561 17.2913L96.6494 17.4912Z"
                      fill="white"/>
            </g>
        </g>
    </g>
    <defs>
        <linearGradient id="paint0_linear" x1="19.7044" y1="-2.42072" x2="-0.136354" y2="2.86051"
                        gradientUnits="userSpaceOnUse">
            <stop stop-color="#00A0FF"/>
            <stop offset="0.01" stop-color="#00A1FF"/>
            <stop offset="0.26" stop-color="#00BEFF"/>
            <stop offset="0.51" stop-color="#00D2FF"/>
            <stop offset="0.76" stop-color="#00DFFF"/>
            <stop offset="1" stop-color="#00E3FF"/>
        </linearGradient>
        <linearGradient id="paint1_linear" x1="36.0628" y1="14.9309" x2="11.8728" y2="14.9309"
                        gradientUnits="userSpaceOnUse">
            <stop stop-color="#FFE000"/>
            <stop offset="0.41" stop-color="#FFBD00"/>
            <stop offset="0.78" stop-color="#FFA500"/>
            <stop offset="1" stop-color="#FF9C00"/>
        </linearGradient>
        <linearGradient id="paint2_linear" x1="12.3204" y1="18.6507" x2="-3.64113" y2="45.4498"
                        gradientUnits="userSpaceOnUse">
            <stop stop-color="#FF3A44"/>
            <stop offset="1" stop-color="#C31162"/>
        </linearGradient>
        <linearGradient id="paint3_linear" x1="2.94778" y1="9.23018" x2="10.0701" y2="21.198"
                        gradientUnits="userSpaceOnUse">
            <stop stop-color="#32A071"/>
            <stop offset="0.07" stop-color="#2DA771"/>
            <stop offset="0.48" stop-color="#15CF74"/>
            <stop offset="0.8" stop-color="#06E775"/>
            <stop offset="1" stop-color="#00F076"/>
        </linearGradient>
    </defs>
</svg>
