<svg width="320" height="54" viewBox="0 0 320 54" fill="none" xmlns="http://www.w3.org/2000/svg">
    <g clip-path="url(#clip0_10_2)">
        <path fill-rule="evenodd" clip-rule="evenodd"
              d="M264.47 43.84C263.531 43.9002 262.591 43.7522 261.716 43.4064C260.841 43.0606 260.054 42.5257 259.41 41.84C257.57 39.78 257.89 37.1 258.06 35.67C258.23 34.24 258.72 31.48 259.28 28.37C259.71 25.98 260.28 22.62 260.57 20.83C259.7 19.9613 259.105 18.8551 258.86 17.65L258.77 17.2V16.74C258.77 11.98 263.26 10.06 265.18 9.23997L265.76 8.98997C267.146 8.30434 268.664 7.92896 270.21 7.88997C271.225 7.87423 272.231 8.08821 273.153 8.51592C274.074 8.94363 274.887 9.57402 275.53 10.36C276.307 11.3454 276.841 12.4998 277.09 13.73C277.21 13.3 277.32 12.93 277.43 12.63C277.787 11.3266 278.574 10.182 279.663 9.38159C280.752 8.58119 282.079 8.17189 283.43 8.21997H285.56C286.608 8.13123 287.663 8.27426 288.65 8.63891C289.637 9.00357 290.531 9.5809 291.27 10.33C293.22 12.52 292.87 15.41 292.76 16.33C292.58 17.91 292.01 20.77 291.42 23.81C291 25.97 290.42 29 290.15 30.67C291.015 31.5388 291.609 32.64 291.86 33.84L291.95 34.3V34.84C291.95 39.6 287.43 41.52 285.5 42.34L284.92 42.59C283.518 43.2816 281.983 43.6603 280.42 43.7V43.7C279.403 43.7182 278.395 43.5043 277.473 43.0746C276.552 42.6448 275.74 42.0106 275.1 41.22C274.487 40.4498 274.031 39.5663 273.76 38.62C273.714 38.803 273.657 38.9833 273.59 39.16C271.94 43.84 267.36 43.84 265.86 43.84H264.47Z"
              fill="white"/>
        <path d="M26.12 52.0399C20.9824 52.0182 15.9664 50.4749 11.7053 47.6048C7.44408 44.7347 4.12872 40.6665 2.1777 35.9137C0.226674 31.161 -0.272545 25.9367 0.743059 20.9005C1.75866 15.8643 4.24356 11.2418 7.88406 7.61663C11.5246 3.99146 16.1575 1.5261 21.198 0.531769C26.2384 -0.462564 31.4605 0.0587058 36.205 2.02978C40.9495 4.00084 45.0036 7.33335 47.8557 11.6066C50.7078 15.8799 52.2299 20.9023 52.23 26.0399C52.2035 32.9465 49.4407 39.561 44.5467 44.4343C39.6527 49.3077 33.0266 52.0426 26.12 52.0399V52.0399ZM19 29.0899C20.3765 29.5246 21.7145 30.0732 23 30.7299C24.4499 31.4927 25.7944 32.4406 27 33.5499L29.4 20.7499L19 29.0899Z"
              fill="white"/>
        <path d="M26.12 4.60003C21.8875 4.61782 17.755 5.88918 14.2444 8.25362C10.7337 10.6181 8.00227 13.9696 6.39483 17.8851C4.7874 21.8007 4.37603 26.1046 5.21266 30.2538C6.04929 34.4029 8.09641 38.2111 11.0956 41.1978C14.0948 44.1844 17.9116 46.2156 22.0642 47.0348C26.2168 47.854 30.519 47.4246 34.4278 45.8008C38.3365 44.1769 41.6766 41.4315 44.0263 37.9109C46.376 34.3904 47.63 30.2527 47.6301 26.02C47.6248 23.201 47.0642 20.4107 45.9803 17.8084C44.8963 15.2061 43.3103 12.8428 41.3128 10.8537C39.3152 8.86452 36.9454 7.28841 34.3386 6.21539C31.7317 5.14236 28.9391 4.59346 26.12 4.60003M30 42.28C29.3661 42.4682 28.7109 42.5757 28.05 42.6C26.4927 39.3558 23.9988 36.6528 20.89 34.84C17.7142 33.2756 14.2389 32.4127 10.7 32.31C10.3976 31.7094 10.1789 31.0701 10.05 30.41L34 11.16C34.6216 11.4025 35.2018 11.7399 35.72 12.16L30 42.28Z"
              fill="#DE322B"/>
        <path d="M30 42.2801L35.66 12.1801C35.1418 11.7599 34.5616 11.4226 33.94 11.1801L10.05 30.4101C10.1789 31.0701 10.3976 31.7094 10.7 32.3101C14.2389 32.4128 17.7142 33.2756 20.89 34.8401C24.0166 36.6519 26.5254 39.3628 28.09 42.6201C28.7383 42.5859 29.3798 42.4717 30 42.2801Z"
              fill="white"/>
        <path fill-rule="evenodd" clip-rule="evenodd"
              d="M133.16 43.9C129.626 43.9616 126.18 42.8011 123.403 40.6146C120.626 38.428 118.689 35.3497 117.92 31.9C117.319 29.0603 117.367 26.1215 118.059 23.3027C118.752 20.484 120.071 17.8578 121.92 15.62C123.902 13.2384 126.383 11.3207 129.188 10.0024C131.992 8.68405 135.051 7.99709 138.15 7.98999C139.592 7.98967 141.03 8.14049 142.44 8.43999C144.287 8.78912 146.015 9.60051 147.462 10.7984C148.91 11.9963 150.031 13.5416 150.72 15.29C151.34 16.9506 151.522 18.7428 151.249 20.4941C150.975 22.2455 150.256 23.897 149.16 25.29C148.673 25.9324 148.131 26.5314 147.54 27.08C148.477 27.665 149.237 28.4948 149.738 29.4799C150.238 30.465 150.46 31.568 150.38 32.67C150.38 40.82 138.86 43.53 134.38 43.89C133.94 43.89 133.51 43.94 133.07 43.94L133.16 43.9Z"
              fill="white"/>
        <path fill-rule="evenodd" clip-rule="evenodd"
              d="M187.81 43.9C184.276 43.9616 180.83 42.8011 178.053 40.6146C175.276 38.428 173.339 35.3497 172.57 31.9C171.976 29.0566 172.031 26.1156 172.733 23.2967C173.434 20.4777 174.763 17.8535 176.62 15.62C178.6 13.2381 181.079 11.3201 183.882 10.0017C186.685 8.68325 189.743 7.9965 192.84 7.98999C194.285 7.99014 195.726 8.14096 197.14 8.43999C198.986 8.7889 200.712 9.60034 202.159 10.7984C203.605 11.9964 204.724 13.5418 205.41 15.29C206.03 16.9506 206.212 18.7428 205.939 20.4941C205.666 22.2455 204.946 23.897 203.85 25.29C203.364 25.9299 202.825 26.5286 202.24 27.08C203.176 27.6655 203.935 28.4957 204.434 29.4809C204.932 30.4661 205.152 31.5688 205.07 32.67C205.07 40.82 193.55 43.53 189.12 43.89C188.68 43.89 188.24 43.94 187.81 43.94V43.9Z"
              fill="white"/>
        <path fill-rule="evenodd" clip-rule="evenodd"
              d="M245.61 43.9C242.077 43.9597 238.631 42.7985 235.854 40.6123C233.078 38.4261 231.141 35.3488 230.37 31.9C229.769 29.0603 229.816 26.1215 230.509 23.3027C231.202 20.484 232.521 17.8578 234.37 15.62C236.352 13.2384 238.833 11.3207 241.638 10.0024C244.442 8.68405 247.501 7.99709 250.6 7.98999C252.042 7.98967 253.48 8.14049 254.89 8.43999C256.736 8.78623 258.464 9.59669 259.911 10.7951C261.358 11.9934 262.476 13.5403 263.16 15.29C263.783 16.9495 263.968 18.7416 263.696 20.4932C263.425 22.2449 262.706 23.897 261.61 25.29C261.124 25.9182 260.586 26.5036 260 27.04C260.937 27.625 261.697 28.4548 262.198 29.4399C262.698 30.425 262.92 31.528 262.84 32.63C262.84 40.78 251.32 43.49 246.84 43.85C246.41 43.85 245.97 43.9 245.53 43.9H245.61Z"
              fill="white"/>
        <path fill-rule="evenodd" clip-rule="evenodd"
              d="M160.33 44.14C157.88 44.1446 155.462 43.5776 153.27 42.4839C151.077 41.3902 149.17 39.8001 147.7 37.84C146.158 35.7971 145.112 33.424 144.643 30.9078C144.175 28.3916 144.297 25.8009 145 23.34C147.8 13.27 154.87 7.95996 165.45 7.95996H166.12C169.69 8.03996 176.24 9.56996 178.12 14.84C179.5 18.7333 178.917 22.0966 176.37 24.93C177.239 26.3912 177.699 28.0597 177.7 29.76C177.7 37.85 171.29 43.48 161.37 44.11H160.37L160.33 44.14Z"
              fill="white"/>
        <path fill-rule="evenodd" clip-rule="evenodd"
              d="M301.84 43.97C294.97 43.97 289.7 40.6 287.37 34.78C284.6 27.88 286.79 19.12 292.68 13.47C296.481 9.92382 301.482 7.94499 306.68 7.92998C308.869 7.92039 311.041 8.3101 313.09 9.07998C317.32 10.71 321.09 15.43 319.76 20.99C319.408 22.3182 318.703 23.5267 317.721 24.4877C316.739 25.4487 315.515 26.1267 314.18 26.45C315.242 26.5617 316.247 26.992 317.06 27.6844C317.874 28.3768 318.459 29.299 318.74 30.33C319.118 31.5528 319.198 32.8484 318.971 34.1083C318.745 35.3681 318.22 36.5552 317.44 37.57C313.5 42.85 303.66 43.97 301.89 43.97H301.84Z"
              fill="white"/>
        <path fill-rule="evenodd" clip-rule="evenodd"
              d="M96.8601 43.91C95.302 43.9509 93.7566 43.6203 92.3516 42.9456C90.9466 42.271 89.7223 41.2715 88.7801 40.03C88.0617 39.0301 87.5956 37.8715 87.4215 36.6526C87.2474 35.4338 87.3704 34.191 87.7801 33.03C88.7801 30.11 91.4901 29.26 93.1001 28.75L93.8901 28.48C94.7705 26.7752 95.4774 24.9862 96.0001 23.14C97.6101 18.09 99.6101 11.81 107 9.14C112.38 7.14 117.6 8.26999 120.76 11.92C123.19 14.73 124.19 18.68 123.56 23.04C123.337 24.4075 123.043 25.7627 122.68 27.1C122.33 28.3324 122.073 29.5892 121.91 30.86C122.565 31.5072 123.07 32.2907 123.388 33.1548C123.706 34.019 123.829 34.9426 123.75 35.86C123.548 36.9018 123.123 37.8878 122.506 38.7506C121.888 39.6135 121.091 40.333 120.17 40.86C118.55 41.97 115.35 43.86 112.17 43.86C110.724 43.9018 109.302 43.4798 108.113 42.6558C106.923 41.8317 106.029 40.6488 105.56 39.28C105.37 38.7501 105.226 38.2047 105.13 37.65C103.47 41.34 101.23 43.91 96.8601 43.91Z"
              fill="white"/>
        <path fill-rule="evenodd" clip-rule="evenodd"
              d="M203.21 53.68C199.1 53.62 197.47 51.44 196.87 50.15C196.11 48.52 195.78 45.87 198.51 42.49C199.27 41.3 200.56 35.81 201.24 30.74C201.67 27.45 202.24 22.87 202.52 20.65C201.663 19.7705 201.085 18.6571 200.86 17.45L200.78 17V16.54C200.87 11.54 205.78 9.62997 207.91 8.82997L208.1 8.74997C209.3 8.26779 210.577 8.01018 211.87 7.98997C213.649 7.96078 215.374 8.60353 216.7 9.78997C218.737 8.66211 221.022 8.05737 223.35 8.02997C225.398 8.03449 227.412 8.55103 229.209 9.53258C231.006 10.5141 232.529 11.9295 233.64 13.65C239.17 21.72 235.64 32.79 229.08 38.83C225.711 42.0188 221.268 43.8279 216.63 43.9C216.23 43.9 215.84 43.9 215.46 43.9L215.64 44.34C216.22 45.78 217.31 48.45 215.57 51.03C214.39 52.78 212.42 53.66 209.71 53.66H208.11C207.03 53.66 205.68 53.66 204.39 53.66L203.21 53.68Z"
              fill="white"/>
        <path fill-rule="evenodd" clip-rule="evenodd"
              d="M83.3801 43.92C80.1101 43.92 77.2801 42.23 74.9601 38.92L74.8701 39.18C73.2301 43.84 68.6601 43.84 67.1501 43.84H65.7601C64.8215 43.8996 63.8813 43.7512 63.0066 43.4055C62.1319 43.0598 61.3444 42.5252 60.7001 41.84C58.8701 39.78 59.1801 37.1 59.3501 35.67C59.5201 34.24 60.0101 31.57 60.5201 28.67L60.7701 27.28L60.8501 26.87C61.2601 24.72 61.6401 22.7 61.8501 21.2C61.8501 21.05 61.8501 20.91 61.9101 20.79C61.043 19.9189 60.4488 18.8138 60.2001 17.61L60.1101 17.16V16.7C60.1101 11.94 64.6101 10.02 66.5301 9.20002L67.1101 8.95002C68.4991 8.26328 70.0211 7.88788 71.5701 7.85002C72.6121 7.83087 73.6443 8.05287 74.5863 8.49869C75.5282 8.94451 76.3544 9.60208 77.0001 10.42C77.3089 10.8031 77.5801 11.215 77.8101 11.65C78.2401 11.31 78.6801 11 79.1201 10.65C81.6596 9.01649 84.5925 8.0976 87.6101 7.99002C92.3901 7.99002 95.6101 11.14 95.6101 15.84C95.6651 16.7387 95.5293 17.6388 95.2116 18.4811C94.8939 19.3235 94.4015 20.0892 93.7667 20.7277C93.132 21.3662 92.3693 21.8631 91.5288 22.1858C90.6883 22.5085 89.7891 22.6497 88.8901 22.6C87.991 22.5821 87.0948 22.4918 86.2101 22.33L85.2101 22.19C85.0901 22.25 84.9901 22.32 84.8901 22.38C85.2027 23.8601 85.8355 25.2537 86.7442 26.463C87.653 27.6723 88.8155 28.668 90.1501 29.38C91.2365 29.8966 92.1605 30.701 92.8216 31.706C93.4828 32.7109 93.8558 33.8779 93.9001 35.08C93.9501 38.79 90.7801 41.2 88.9001 42.3C87.2608 43.3158 85.3783 43.8719 83.4501 43.91L83.3801 43.92Z"
              fill="white"/>
        <path fill-rule="evenodd" clip-rule="evenodd"
              d="M284.48 12.8401C282.89 12.8401 282.34 12.5501 281.77 14.1801C281.05 16.1801 279.64 24.1801 279.64 24.1801C278.52 24.3401 274.14 24.3601 271.69 24.3401C271.04 24.3401 276.46 9.17006 267.69 13.1901C266.12 13.9101 263.38 14.7701 263.38 16.7601C263.65 18.0901 265.29 18.0801 265.29 19.8501C265.29 21.9301 263.02 33.0201 262.64 36.2301C262.26 39.4401 263 39.2301 265.58 39.2301C267.16 39.2301 268.67 39.2301 269.25 37.6601C269.71 36.3601 270.49 31.0501 271.11 27.6601H279.06C279.71 27.6601 274.18 42.4501 283.01 38.4201C284.58 37.7101 287.34 36.8401 287.34 34.8601C287.07 33.5301 285.42 33.5401 285.42 31.7601C285.42 29.6901 287.81 19.0901 288.19 15.8801C288.57 12.6701 287.07 12.8401 284.48 12.8401Z"
              fill="#DE322B"/>
        <path fill-rule="evenodd" clip-rule="evenodd"
              d="M143.45 31.64C141.31 33.4 138.51 35.02 135.65 35.02C131.4 35.02 130.73 31.02 130.73 27.85C135.73 27.4 142.29 26.79 145.52 22.49C148.47 18.56 146.05 13.85 141.52 12.92C130.73 10.67 120.15 19.63 122.4 30.97C123.48 36.42 128.73 39.69 134.06 39.26C137.18 39.01 145.78 36.99 145.78 32.63C145.82 30.5 144.69 30.62 143.45 31.64ZM134.11 17.31C134.94 16.37 137.89 14.87 138.93 16.38C142.03 20.9 133.93 23.93 130.73 24.5C131.202 21.8468 132.368 19.3659 134.11 17.31V17.31Z"
              fill="#DE322B"/>
        <path fill-rule="evenodd" clip-rule="evenodd"
              d="M198.09 31.64C195.96 33.4 193.15 35.02 190.3 35.02C186.04 35.02 185.37 31.02 185.37 27.85C190.37 27.4 196.93 26.79 200.17 22.49C203.11 18.56 200.69 13.85 196.17 12.92C185.39 10.67 174.81 19.63 177.05 30.97C178.13 36.42 183.38 39.69 188.72 39.26C191.83 39.01 200.44 36.99 200.44 32.63C200.47 30.5 199.33 30.62 198.09 31.64ZM188.75 17.31C189.58 16.37 192.54 14.87 193.58 16.38C196.67 20.9 188.58 23.93 185.37 24.5C185.85 21.8495 187.016 19.3708 188.75 17.31Z"
              fill="#DE322B"/>
        <path fill-rule="evenodd" clip-rule="evenodd"
              d="M255.9 31.64C253.77 33.4 250.96 35.02 248.1 35.02C243.85 35.02 243.18 31.02 243.18 27.85C248.13 27.4 254.74 26.79 257.97 22.49C260.92 18.56 258.5 13.85 253.97 12.92C243.18 10.67 232.6 19.63 234.85 30.97C235.93 36.42 241.18 39.69 246.51 39.26C249.63 39.01 258.23 36.99 258.23 32.63C258.27 30.5 257.14 30.62 255.9 31.64ZM246.56 17.31C247.39 16.37 250.34 14.87 251.38 16.38C254.48 20.9 246.38 23.93 243.18 24.5C243.652 21.8468 244.818 19.3659 246.56 17.31V17.31Z"
              fill="#DE322B"/>
        <path fill-rule="evenodd" clip-rule="evenodd"
              d="M168.35 24.98C172.11 23.22 175.43 21.04 173.78 16.38C172.83 13.72 168.56 12.62 166.02 12.57C157.41 12.39 151.77 16.18 149.44 24.57C147.25 32.48 153.1 40.01 161.08 39.51C166.89 39.15 173.08 36.51 173.08 29.76C173.077 28.5016 172.58 27.2948 171.695 26.4004C170.81 25.506 169.608 24.9957 168.35 24.98V24.98ZM165.61 16.52C170.17 20.61 160.3 24.01 156.46 24.64C157.74 17.84 164.21 15.26 165.61 16.52V16.52ZM159.21 34.4C155.21 33.33 156.29 27.4 156.29 27.4C159.29 27.06 166.19 26.32 166.29 30.25C166.41 33.39 162 35.14 159.21 34.4V34.4Z"
              fill="#DE322B"/>
        <path fill-rule="evenodd" clip-rule="evenodd"
              d="M311.41 13.38C306.28 11.38 299.83 13 295.86 16.8C287.8 24.53 289.05 39.33 301.86 39.36C304.49 39.36 315.96 37.16 314.31 31.65C313.76 29.82 311.24 32.55 310.02 33.15C308.38 33.95 304.2 35.78 302.27 34.64C297.34 31.74 299.16 22.06 301.79 18.54C303.66 16.05 305.17 15.54 306.96 15.98C308.75 16.42 306.64 20.8 309.47 21.88C311.47 22.64 314.72 22.15 315.26 19.88C316 16.9 313.82 14.31 311.41 13.38Z"
              fill="#DE322B"/>
        <path fill-rule="evenodd" clip-rule="evenodd"
              d="M111.94 21.62C112.23 19.51 112.94 18.39 111.58 17.62C108.01 15.71 105.58 21.62 104.58 24.5C101.32 34.15 100.86 39.27 96.8301 39.26C93.7001 39.26 91.2101 37.12 92.1201 34.49C92.6401 32.99 96.2801 33.22 97.4501 31.41C101.31 25.47 100.5 16.33 108.5 13.41C115.5 10.84 119.89 15.61 118.92 22.33C118.49 25.33 117.2 28.42 117.2 31.47C117.2 34.19 121.28 34.47 117.5 37.06C115.8 38.22 111.02 40.96 109.82 37.68C109.375 35.8331 109.375 33.9069 109.82 32.06L111.92 21.59"
              fill="#DE322B"/>
        <path fill-rule="evenodd" clip-rule="evenodd"
              d="M229.85 16.2501C225.85 10.3601 218.43 12.3201 214.85 17.5201C214.91 14.2101 213.92 11.5201 209.8 13.0501C208.19 13.6701 205.47 14.6301 205.43 16.6201C205.68 17.9401 207.32 17.9401 207.29 19.7101C207.29 20.2801 205.85 31.3601 205.85 31.3601C205.85 31.3601 204.35 42.5201 202.19 45.3101C200.19 47.7501 200.75 49.0401 203.31 49.0701C205.66 49.0701 208.65 49.0701 209.76 49.0701C214.25 49.0701 210.41 45.8301 210.76 43.0701C211.03 40.8801 211.71 37.8201 211.71 37.8201C213.188 38.8108 214.931 39.3335 216.71 39.3201C220.181 39.2234 223.492 37.8406 226 35.4401C231 30.8401 233.92 22.2001 229.85 16.2501ZM222.06 28.6101C221.33 30.8801 220.14 33.4901 217.98 34.5601C216.08 35.5601 214.14 34.5601 212.24 34.0001C212.58 31.6201 213.95 23.5801 214.09 22.9201C215.09 20.6701 216.59 17.6801 219.2 16.9201C225.15 15.3001 222.88 26.0501 222.06 28.6101Z"
              fill="#DE322B"/>
        <path fill-rule="evenodd" clip-rule="evenodd"
              d="M83.5899 17.8399C85.8299 16.7299 90.9699 19.9899 90.9699 15.8399C90.9699 10.6899 84.1499 12.8399 81.6499 14.4799C78.2099 16.7699 75.3599 20.4799 73.2599 23.9599C73.3499 23.4499 73.4599 22.4999 73.5599 21.9599C74.3899 17.8799 75.6299 10.1499 69.0699 13.1499C67.4999 13.8699 64.7599 14.7299 64.7599 16.7199C65.0199 18.0499 66.6699 18.0399 66.6699 19.8099C66.6345 20.5304 66.5577 21.2483 66.4399 21.9599C66.1599 23.6099 65.7399 25.8299 65.3099 28.1099C64.7299 31.2899 64.0999 34.7099 63.9299 36.1899C63.5399 39.4499 64.2899 39.1899 66.8599 39.1899C68.4399 39.1899 69.9599 39.1899 70.5299 37.6199C70.8999 36.6199 71.5299 32.8599 72.0699 29.6999C72.2192 28.926 72.5284 28.1918 72.9779 27.5444C73.4273 26.8969 74.007 26.3504 74.6799 25.9399C75.413 29.4614 76.7169 32.8393 78.5399 35.9399C80.6199 39.0899 83.0799 40.2899 86.5399 38.2899C87.9999 37.4399 90.9999 35.12 87.8799 33.42C81.5099 29.92 80.7899 24.5199 80.0099 22.4199C79.2799 20.4599 81.7899 18.7499 83.5899 17.8399Z"
              fill="#DE322B"/>
    </g>
    <defs>
        <clipPath id="clip0_10_2">
            <rect width="320" height="53.69" fill="white"/>
        </clipPath>
    </defs>
</svg>
