<svg width="213" height="36" viewBox="0 0 213 36" fill="none" xmlns="http://www.w3.org/2000/svg">
    <path d="M17.4261 35.5C13.968 35.4854 10.5919 34.4466 7.72381 32.5148C4.85567 30.583 2.62416 27.8448 1.31097 24.6458C-0.00222571 21.4468 -0.33824 17.9304 0.345343 14.5407C1.02892 11.1509 2.70146 8.0396 5.15181 5.59957C7.60219 3.15954 10.7205 1.50016 14.1132 0.830891C17.5058 0.161625 21.0206 0.512482 24.2141 1.83917C27.4075 3.16585 30.1362 5.4089 32.0559 8.28514C33.9756 11.1614 35.0001 14.5419 35.0002 17.9999C34.9823 22.6486 33.1228 27.1007 29.8287 30.3808C26.5347 33.661 22.0748 35.5018 17.4261 35.5ZM12.6337 20.0528C13.5602 20.3454 14.4608 20.7146 15.3261 21.1567C16.302 21.6701 17.2069 22.3081 18.0184 23.0547L19.6338 14.4393L12.6337 20.0528Z"
          fill="white"/>
    <path d="M17.4261 3.56928C14.5773 3.58126 11.7958 4.43699 9.43288 6.02844C7.0699 7.61993 5.23142 9.87576 4.14949 12.5112C3.06756 15.1467 2.79067 18.0436 3.35379 20.8363C3.91691 23.629 5.29479 26.1922 7.31348 28.2025C9.33219 30.2127 11.9012 31.5799 14.6962 32.1313C17.4913 32.6827 20.387 32.3937 23.0179 31.3007C25.6488 30.2077 27.8969 28.3598 29.4785 25.9902C31.06 23.6206 31.9041 20.8356 31.9041 17.9866C31.9006 16.0892 31.5232 14.2111 30.7937 12.4596C30.0641 10.708 28.9966 9.11733 27.6521 7.7785C26.3075 6.43963 24.7125 5.37878 22.9579 4.65655C21.2032 3.93432 19.3236 3.56486 17.4261 3.56928ZM20.0377 28.9309C19.611 29.0576 19.17 29.13 18.7252 29.1463C17.677 26.9627 15.9984 25.1434 13.9059 23.9232C11.7683 22.8702 9.42918 22.2894 7.04721 22.2203C6.84367 21.8161 6.69647 21.3858 6.60971 20.9415L22.73 7.98467C23.1484 8.14789 23.5389 8.37499 23.8877 8.65775L20.0377 28.9309Z"
          fill="white"/>
    <path d="M20.0373 28.9308L23.847 8.67104C23.4982 8.38821 23.1077 8.16118 22.6893 7.99796L6.60938 20.9413C6.69614 21.3855 6.84334 21.8158 7.04688 22.2201C9.42884 22.2893 11.768 22.87 13.9056 23.923C16.01 25.1425 17.6986 26.9672 18.7517 29.1596C19.1881 29.1366 19.6199 29.0597 20.0373 28.9308Z"
          fill="#06195E"/>
    <path fill-rule="evenodd" clip-rule="evenodd"
          d="M191.323 9.1152C190.253 9.1152 189.883 8.92001 189.499 10.0171C189.014 11.3633 188.065 16.7479 188.065 16.7479C187.311 16.8556 184.363 16.8691 182.714 16.8556C182.277 16.8556 185.925 6.64497 180.022 9.35078C178.965 9.8354 177.121 10.4142 177.121 11.7537C177.303 12.6489 178.407 12.6421 178.407 13.8335C178.407 15.2335 176.879 22.698 176.623 24.8585C176.367 27.0191 176.865 26.8778 178.602 26.8778C179.665 26.8778 180.682 26.8778 181.072 25.8211C181.382 24.946 181.907 21.372 182.324 19.0903H187.675C188.112 19.0903 184.39 29.0451 190.334 26.3326C191.39 25.8547 193.248 25.2691 193.248 23.9364C193.066 23.0412 191.956 23.048 191.956 21.8499C191.956 20.4566 193.564 13.322 193.82 11.1614C194.076 9.00078 193.066 9.1152 191.323 9.1152Z"
          fill="white"/>
    <path fill-rule="evenodd" clip-rule="evenodd"
          d="M96.3986 21.7694C94.9582 22.9541 93.0735 24.0444 91.1485 24.0444C88.2879 24.0444 87.837 21.3521 87.837 19.2185C91.2024 18.9156 95.6178 18.505 97.7918 15.6107C99.7774 12.9655 98.1486 9.79533 95.0995 9.16937C87.837 7.65494 80.7158 13.6857 82.2302 21.3185C82.9572 24.9868 86.4908 27.1877 90.0783 26.8983C92.1783 26.73 97.9668 25.3704 97.9668 22.4358C97.9938 21.0021 97.2332 21.0829 96.3986 21.7694ZM90.112 12.1242C90.6706 11.4915 92.6562 10.4819 93.3562 11.4982C95.4428 14.5405 89.9908 16.58 87.837 16.9636C88.1547 15.1778 88.9395 13.508 90.112 12.1242Z"
          fill="white"/>
    <path fill-rule="evenodd" clip-rule="evenodd"
          d="M133.176 21.7694C131.742 22.9541 129.851 24.0444 127.933 24.0444C125.065 24.0444 124.614 21.3521 124.614 19.2185C127.98 18.9156 132.395 18.505 134.576 15.6107C136.555 12.9655 134.926 9.79533 131.883 9.16937C124.628 7.65494 117.506 13.6857 119.014 21.3185C119.741 24.9868 123.275 27.1877 126.869 26.8983C128.962 26.73 134.758 25.3704 134.758 22.4358C134.778 21.0021 134.01 21.0829 133.176 21.7694ZM126.889 12.1242C127.448 11.4915 129.44 10.4819 130.14 11.4982C132.22 14.5405 126.775 16.58 124.614 16.9636C124.937 15.1796 125.722 13.5113 126.889 12.1242Z"
          fill="white"/>
    <path fill-rule="evenodd" clip-rule="evenodd"
          d="M172.086 21.7694C170.652 22.9541 168.761 24.0444 166.836 24.0444C163.975 24.0444 163.524 21.3521 163.524 19.2185C166.856 18.9156 171.305 18.505 173.479 15.6107C175.465 12.9655 173.836 9.79533 170.787 9.16937C163.524 7.65494 156.403 13.6857 157.918 21.3185C158.645 24.9868 162.178 27.1877 165.766 26.8983C167.866 26.73 173.654 25.3704 173.654 22.4358C173.681 21.0021 172.921 21.0829 172.086 21.7694ZM165.799 12.1242C166.358 11.4915 168.344 10.4819 169.044 11.4982C171.13 14.5405 165.678 16.58 163.524 16.9636C163.842 15.1778 164.627 13.508 165.799 12.1242Z"
          fill="white"/>
    <path fill-rule="evenodd" clip-rule="evenodd"
          d="M113.158 17.2865C115.689 16.1019 117.924 14.6345 116.813 11.498C116.174 9.7076 113.299 8.96721 111.59 8.93356C105.795 8.8124 101.998 11.3634 100.43 17.0105C98.9561 22.3346 102.894 27.4029 108.265 27.0663C112.175 26.824 116.342 25.0471 116.342 20.5038C116.34 19.6568 116.005 18.8445 115.41 18.2425C114.814 17.6405 114.005 17.2971 113.158 17.2865ZM111.314 11.5922C114.383 14.3451 107.74 16.6336 105.155 17.0576C106.017 12.4807 110.372 10.7441 111.314 11.5922ZM107.006 23.6269C104.314 22.9067 105.041 18.9153 105.041 18.9153C107.06 18.6865 111.704 18.1884 111.772 20.8336C111.852 22.9471 108.884 24.125 107.006 23.6269Z"
          fill="white"/>
    <path fill-rule="evenodd" clip-rule="evenodd"
          d="M209.45 9.47863C205.997 8.13247 201.655 9.22286 198.983 11.7806C193.558 16.9835 194.399 26.9451 203.022 26.9653C204.792 26.9653 212.512 25.4845 211.401 21.7758C211.031 20.5441 209.335 22.3816 208.514 22.7854C207.41 23.3239 204.597 24.5556 203.298 23.7883C199.979 21.8364 201.204 15.321 202.974 12.9517C204.233 11.2758 205.249 10.9325 206.454 11.2286C207.659 11.5248 206.239 14.4729 208.144 15.1998C209.49 15.7113 211.677 15.3815 212.041 13.8536C212.539 11.8479 211.072 10.1046 209.45 9.47863Z"
          fill="white"/>
    <path fill-rule="evenodd" clip-rule="evenodd"
          d="M75.1899 15.0251C75.3851 13.6049 75.863 12.851 74.9476 12.3328C72.5447 11.0472 70.9091 15.0251 70.236 16.9636C68.0418 23.4588 67.7321 26.905 65.0197 26.8982C62.913 26.8982 61.237 25.4578 61.8495 23.6876C62.1995 22.678 64.6495 22.8328 65.437 21.6145C68.035 17.6165 67.4898 11.4645 72.8745 9.49911C77.586 7.76929 80.5409 10.9799 79.888 15.503C79.5985 17.5222 78.7303 19.602 78.7303 21.6549C78.7303 23.4857 81.4764 23.6742 78.9322 25.4175C77.788 26.1982 74.5706 28.0425 73.7629 25.8348C73.4634 24.5917 73.4634 23.2952 73.7629 22.0521L75.1764 15.0049"
          fill="white"/>
    <path fill-rule="evenodd" clip-rule="evenodd"
          d="M154.553 11.4107C151.86 7.44622 146.866 8.76546 144.457 12.2655C144.497 10.0376 143.831 8.227 141.058 9.25681C139.974 9.67412 138.143 10.3203 138.116 11.6597C138.284 12.5482 139.388 12.5482 139.368 13.7395C139.368 14.1232 138.399 21.5809 138.399 21.5809C138.399 21.5809 137.389 29.0925 135.935 30.9704C134.589 32.6127 134.966 33.481 136.689 33.5012C138.271 33.5012 140.283 33.5012 141.031 33.5012C144.053 33.5012 141.468 31.3204 141.704 29.4627C141.885 27.9886 142.343 25.929 142.343 25.929C143.338 26.5958 144.511 26.9476 145.708 26.9386C148.045 26.8735 150.273 25.9428 151.961 24.3271C155.327 21.2309 157.292 15.4155 154.553 11.4107ZM149.309 19.7299C148.818 21.2578 148.017 23.0146 146.563 23.7348C145.284 24.4078 143.979 23.7348 142.7 23.3578C142.929 21.7559 143.851 16.3443 143.945 15.9001C144.618 14.3857 145.628 12.3732 147.384 11.8616C151.389 10.7712 149.861 18.0069 149.309 19.7299Z"
          fill="white"/>
    <path fill-rule="evenodd" clip-rule="evenodd"
          d="M56.108 12.4808C57.6157 11.7337 61.0754 13.9279 61.0754 11.1347C61.0754 7.6683 56.485 9.11542 54.8023 10.2193C52.4869 11.7606 50.5686 14.2578 49.1551 16.6001C49.2157 16.2568 49.2897 15.6174 49.357 15.2539C49.9157 12.5077 50.7503 7.30483 46.3349 9.32407C45.2782 9.80869 43.4339 10.3875 43.4339 11.727C43.6089 12.6222 44.7195 12.6154 44.7195 13.8068C44.6957 14.2917 44.644 14.7749 44.5647 15.2539C44.3762 16.3645 44.0936 17.8587 43.8041 19.3934C43.4137 21.5337 42.9897 23.8357 42.8753 24.8318C42.6128 27.0261 43.1176 26.8511 44.8474 26.8511C45.9109 26.8511 46.934 26.8511 47.3176 25.7943C47.5666 25.1213 47.9907 22.5905 48.3542 20.4636C48.4546 19.9427 48.6628 19.4485 48.9653 19.0127C49.2678 18.5769 49.658 18.2091 50.1109 17.9328C50.6043 20.303 51.482 22.5766 52.709 24.6636C54.109 26.7838 55.7648 27.5915 58.0936 26.2453C59.0763 25.6732 61.0956 24.1117 58.9956 22.9675C54.708 20.6117 54.2234 16.977 53.6984 15.5635C53.2071 14.2443 54.8965 13.0933 56.108 12.4808Z"
          fill="white"/>
</svg>
