<svg width="45" height="45" viewBox="0 0 45 45" fill="none" xmlns="http://www.w3.org/2000/svg">
<circle cx="22.5" cy="22.5" r="22.5" fill="#3858C9"/>
<path d="M8.5696 31V16.8182H12.3182V19.3203H12.4844C12.7798 18.4893 13.2723 17.8338 13.9616 17.3537C14.651 16.8736 15.4759 16.6335 16.4361 16.6335C17.4086 16.6335 18.2365 16.8767 18.9197 17.3629C19.603 17.843 20.0585 18.4955 20.2862 19.3203H20.4339C20.7232 18.5078 21.2464 17.8584 22.0036 17.3722C22.7668 16.8797 23.6686 16.6335 24.7088 16.6335C26.0322 16.6335 27.1063 17.0552 27.9311 17.8984C28.7621 18.7356 29.1776 19.9235 29.1776 21.4624V31H25.2536V22.2379C25.2536 21.45 25.0443 20.8591 24.6257 20.4652C24.2072 20.0713 23.6839 19.8743 23.0561 19.8743C22.3421 19.8743 21.785 20.102 21.3849 20.5575C20.9848 21.0069 20.7848 21.6009 20.7848 22.3395V31H16.9716V22.1548C16.9716 21.4593 16.7715 20.9053 16.3714 20.4929C15.9775 20.0805 15.4574 19.8743 14.8111 19.8743C14.3741 19.8743 13.9801 19.9851 13.6293 20.2067C13.2846 20.4221 13.0107 20.7268 12.8075 21.1207C12.6044 21.5085 12.5028 21.964 12.5028 22.4872V31H8.5696ZM34.5835 31.2401C33.9741 31.2401 33.4509 31.0246 33.0138 30.5938C32.583 30.1567 32.3675 29.6335 32.3675 29.0241C32.3675 28.4209 32.583 27.9039 33.0138 27.473C33.4509 27.0421 33.9741 26.8267 34.5835 26.8267C35.1744 26.8267 35.6914 27.0421 36.1346 27.473C36.5778 27.9039 36.7994 28.4209 36.7994 29.0241C36.7994 29.4304 36.6947 29.8028 36.4854 30.1413C36.2823 30.4737 36.0146 30.7415 35.6822 30.9446C35.3498 31.1416 34.9835 31.2401 34.5835 31.2401ZM34.5835 21.3054C33.9741 21.3054 33.4509 21.09 33.0138 20.6591C32.583 20.2282 32.3675 19.705 32.3675 19.0895C32.3675 18.4863 32.583 17.9723 33.0138 17.5476C33.4509 17.1167 33.9741 16.9013 34.5835 16.9013C35.1744 16.9013 35.6914 17.1167 36.1346 17.5476C36.5778 17.9723 36.7994 18.4863 36.7994 19.0895C36.7994 19.5019 36.6947 19.8774 36.4854 20.2159C36.2823 20.5483 36.0146 20.813 35.6822 21.0099C35.3498 21.2069 34.9835 21.3054 34.5835 21.3054Z" fill="white"/>
</svg>
