<svg width="33" height="32" viewBox="0 0 33 32" fill="none" xmlns="http://www.w3.org/2000/svg">
<g clip-path="url(#clip0_2786_8668)">
<path d="M0.625 15.36C0.625 8.11839 0.625 4.49919 2.8746 2.2496C5.1242 0 8.7434 0 15.985 0H17.265C24.5066 0 28.1258 0 30.3754 2.2496C32.625 4.49919 32.625 8.11839 32.625 15.36V16.64C32.625 23.8816 32.625 27.5008 30.3754 29.7504C28.1258 32.0001 24.5066 32.0001 17.265 32.0001H15.985C8.7434 32.0001 5.1242 32.0001 2.8746 29.7504C0.625 27.5008 0.625 23.8816 0.625 16.64V15.36Z" fill="#0077FF"/>
<path d="M19.2914 0C13.381 0.0192 10.2354 0.2176 8.20663 2.2464C5.95703 4.49599 5.95703 8.11519 5.95703 15.3568V16.6368C5.95703 23.8784 5.95703 27.4976 8.20663 29.7472C10.2354 31.776 13.381 31.9744 19.2914 31.9936C25.2018 31.9744 28.3474 31.776 30.3762 29.7472C32.6258 27.4976 32.6258 23.8784 32.6258 16.6368V15.3568C32.6258 8.11519 32.6258 4.49599 30.3762 2.2464C28.3474 0.2208 25.2018 0.0224 19.2914 0Z" fill="#FF2B42"/>
<path d="M23.205 13.155C24.8242 14.0894 25.6306 14.5566 25.9026 15.1646C26.1394 15.6958 26.1394 16.3038 25.9026 16.835C25.6306 17.4462 24.821 17.9102 23.205 18.8446L18.773 21.4046C17.1538 22.339 16.3474 22.8062 15.6818 22.7358C15.1026 22.675 14.5778 22.371 14.2354 21.9006C13.8418 21.3598 13.8418 20.4254 13.8418 18.5598V13.4398C13.8418 11.571 13.8418 10.6366 14.2354 10.099C14.5778 9.62857 15.1026 9.32457 15.6818 9.26377C16.3442 9.19337 17.1538 9.66057 18.773 10.595L23.205 13.155Z" fill="white"/>
</g>
<defs>
<clipPath id="clip0_2786_8668">
<rect width="32" height="32" fill="white" transform="translate(0.625)"/>
</clipPath>
</defs>
</svg>
