<svg width="33" height="32" viewBox="0 0 33 32" fill="none" xmlns="http://www.w3.org/2000/svg">
<g clip-path="url(#clip0_2786_8679)">
<mask id="mask0_2786_8679" style="mask-type:luminance" maskUnits="userSpaceOnUse" x="0" y="0" width="33" height="32">
<path d="M24.8674 0H8.38258C4.09818 0 0.625 3.47318 0.625 7.75758V24.2424C0.625 28.5268 4.09818 32 8.38258 32H24.8674C29.1518 32 32.625 28.5268 32.625 24.2424V7.75758C32.625 3.47318 29.1518 0 24.8674 0Z" fill="white"/>
</mask>
<g mask="url(#mask0_2786_8679)">
<path d="M32.625 0H0.625V32H32.625V0Z" fill="#100943"/>
<path d="M32.625 16C41.4616 16 48.625 8.83656 48.625 7.62939e-06C48.625 -8.83656 41.4616 -16 32.625 -16C23.7884 -16 16.625 -8.83656 16.625 7.62939e-06C16.625 8.83656 23.7884 16 32.625 16Z" fill="#ED143B"/>
<path d="M20.391 15.2695H10.9371V11.5284H20.391C20.9432 11.5284 21.3272 11.6247 21.5199 11.7928C21.7126 11.9608 21.832 12.2726 21.832 12.728V14.0713C21.832 14.5511 21.7126 14.8629 21.5199 15.031C21.3272 15.1991 20.9432 15.2709 20.391 15.2709V15.2695ZM21.0396 8.00143H6.92773V24H10.9371V18.795H18.3259L21.832 24H26.3217L22.4561 18.7706C23.8813 18.5594 24.5212 18.1227 25.0489 17.4029C25.5767 16.6831 25.8414 15.5324 25.8414 13.9966V12.797C25.8414 11.8861 25.7449 11.1664 25.5767 10.6147C25.4085 10.063 25.1209 9.5832 24.7125 9.15219C24.281 8.74419 23.8007 8.45685 23.224 8.26434C22.6474 8.09627 21.9269 8 21.0396 8V8.00143Z" fill="white"/>
</g>
</g>
<defs>
<clipPath id="clip0_2786_8679">
<rect width="32" height="32" fill="white" transform="translate(0.625)"/>
</clipPath>
</defs>
</svg>
