<svg width="33" height="32" viewBox="0 0 33 32" fill="none" xmlns="http://www.w3.org/2000/svg">
<g clip-path="url(#clip0_2786_8672)">
<mask id="mask0_2786_8672" style="mask-type:luminance" maskUnits="userSpaceOnUse" x="0" y="0" width="33" height="32">
<path d="M32.5135 0H0.695312V31.8182H32.5135V0Z" fill="white"/>
</mask>
<g mask="url(#mask0_2786_8672)">
<path d="M16.5372 31.8125H16.6641C22.9816 31.8125 26.6485 31.1765 29.246 28.6548C31.8944 25.9798 32.506 22.2881 32.506 15.9952V15.8173C32.506 9.52634 31.8944 5.85931 29.246 3.15778C26.6504 0.636099 22.957 0 16.666 0H16.5391C10.2217 0 6.55272 0.636099 3.95533 3.15778C1.3068 5.8328 0.695312 9.52634 0.695312 15.8173V15.9952C0.695312 22.2862 1.3068 25.9533 3.95533 28.6548C6.52813 31.1765 10.2217 31.8125 16.5372 31.8125Z" fill="#202022"/>
<path d="M28.7192 15.6651C28.7192 15.5439 28.6207 15.4436 28.4995 15.4379C24.1515 15.2732 21.5053 14.7186 19.6541 12.8673C17.799 11.0123 17.2462 8.36413 17.0816 4.00668C17.0778 3.88553 16.9774 3.78711 16.8544 3.78711H16.3471C16.226 3.78711 16.1256 3.88553 16.12 4.00668C15.9553 8.36224 15.4025 11.0123 13.5475 12.8673C11.6944 14.7205 9.04998 15.2732 4.70199 15.4379C4.58085 15.4417 4.48242 15.542 4.48242 15.6651V16.1724C4.48242 16.2935 4.58085 16.3938 4.70199 16.3995C9.04998 16.5642 11.6962 17.1188 13.5475 18.9701C15.3988 20.8213 15.9515 23.462 16.1181 27.8023C16.1218 27.9234 16.2222 28.0219 16.3452 28.0219H16.8544C16.9755 28.0219 17.0759 27.9234 17.0816 27.8023C17.2481 23.462 17.8009 20.8213 19.6522 18.9701C21.5053 17.1169 24.1496 16.5642 28.4976 16.3995C28.6188 16.3957 28.7173 16.2954 28.7173 16.1724V15.6651H28.7192Z" fill="white"/>
</g>
</g>
<defs>
<clipPath id="clip0_2786_8672">
<rect width="32" height="32" fill="white" transform="translate(0.625)"/>
</clipPath>
</defs>
</svg>
